%
M48
M72
T01C0.0240
T02C0.0276
T03C0.0315
T04C0.0320
T05C0.0354
T06C0.0400
T07C0.0550
T08C0.0630
%
T01
X16429Y1213
X31862Y2315
X35996Y7394
X56429Y4913
X57019Y4441
X57492Y3299
X56586Y2906
X50720Y1961
X57649Y5819
X51153Y14205
X58279Y15189
X61941Y14835
X57019Y16646
X56429Y17118
X57767Y18496
X65838Y16961
X69500Y16961
X71665Y16370
X77964Y19323
X86507Y17394
X90878Y19323
X77964Y21685
X75011Y21685
X74539Y21685
X37137Y20583
X31901Y14559
X16429Y13417
T02
X23004Y11161
X25653Y10661
X26653Y10661
X23004Y10161
X36283Y10268
X37283Y10268
X26653Y14205
X25653Y14205
X6968Y15780
X5968Y15780
X4106Y10768
X4106Y9768
X5968Y3575
X6968Y3575
X25653Y2000
X26653Y2000
X67779Y6724
X68779Y6724
X92582Y9087
X93582Y9087
X93582Y3969
X92582Y3969
X68779Y18929
X67779Y18929
X37677Y22472
X36677Y22472
X26653Y22866
X25653Y22866
X23004Y22366
X23004Y23366
X4106Y23366
X4106Y22366
T03
X45807Y22685
X49807Y22685
X49807Y20685
X45807Y20685
X45807Y10480
X49807Y10480
X49807Y8480
X45807Y8480
X96019Y8331
X98019Y8331
X98019Y4331
X96019Y4331
X99169Y14173
X101169Y14173
X101169Y18173
X99169Y18173
T04
X2106Y1606
X1350Y2756
X6106Y1606
X1350Y6756
X6149Y10661
X9149Y10661
X6106Y13811
X2106Y13811
X1350Y15354
X1350Y19354
X6149Y23260
X9149Y23260
X28878Y23260
X32878Y23260
X32878Y22079
X28878Y22079
X28484Y11055
X28484Y9874
X32484Y9874
X32484Y11055
X95519Y2787
X98519Y2787
T05
X43476Y1381
X43476Y5081
X43870Y13586
X43870Y17286
T06
X54893Y21866
X56649Y22366
X57649Y22366
X58649Y22366
X58649Y23366
X57649Y23366
X56649Y23366
X54893Y22866
X54893Y23866
X74791Y22291
X74791Y20291
X74791Y16386
X74791Y14386
X58649Y11161
X57649Y11161
X56649Y11161
X54106Y11268
X54106Y10268
X56649Y10161
X57649Y10161
X58649Y10161
X54106Y9268
X74791Y10087
X74791Y8087
X74791Y4969
X74791Y2969
X22429Y3756
X19261Y3381
X17301Y3381
X15321Y3381
X13361Y3381
X9043Y3181
X9043Y4181
X9043Y2181
X22429Y5756
X19261Y9281
X13361Y9281
X1744Y8874
X1744Y9874
X1744Y10874
X9043Y14386
X9043Y15386
X9043Y16386
X13361Y15585
X15321Y15585
X17301Y15585
X19261Y15585
X22429Y15567
X22429Y17567
X19261Y21485
X13361Y21485
X1744Y21472
X1744Y22472
X1744Y23472
T07
X4649Y20504
X10649Y20504
X41901Y22717
X41901Y16717
X41901Y10512
X41901Y4512
X10649Y8299
X4649Y8299
X77334Y17504
X79452Y18535
X85452Y18535
X87326Y18535
X93326Y18535
X96626Y20354
X103712Y20748
X101500Y23260
X107500Y23260
X77334Y23504
X103712Y14748
X96626Y14354
X101500Y11055
X107500Y11055
X100956Y8543
X90964Y9087
X84964Y9087
X84964Y3969
X90964Y3969
X100956Y2543
T08
X8862Y6331
X4862Y6331
X4862Y18535
X8862Y18535
M30
