G75*
%MOIN*%
%OFA0B0*%
%FSLAX24Y24*%
%IPPOS*%
%LPD*%
%AMOC8*
5,1,8,0,0,1.08239X$1,22.5*
%
%ADD10C,0.0000*%
%ADD11C,0.0051*%
%ADD12C,0.0060*%
%ADD13C,0.0101*%
%ADD14R,0.0130X0.0320*%
%ADD15R,0.0320X0.0130*%
%ADD16R,0.3299X0.4197*%
%ADD17R,0.1201X0.0400*%
%ADD18R,0.0701X0.0283*%
%ADD19C,0.0520*%
%ADD20R,0.1500X0.0820*%
%ADD21R,0.3500X0.4500*%
%ADD22R,0.0394X0.0551*%
%ADD23C,0.0825*%
%ADD24C,0.0945*%
%ADD25C,0.0600*%
%ADD26C,0.0650*%
%ADD27R,0.0650X0.0650*%
%ADD28R,0.0630X0.0709*%
%ADD29C,0.0750*%
%ADD30R,0.0709X0.0630*%
%ADD31R,0.1339X0.0748*%
%ADD32R,0.0748X0.1339*%
%ADD33C,0.0515*%
%ADD34R,0.0600X0.0600*%
%ADD35OC8,0.0600*%
%ADD36C,0.0100*%
%ADD37C,0.0400*%
D10*
X000169Y000425D02*
X000169Y012236D01*
X108830Y012236D01*
X108830Y000425D01*
X000169Y000425D01*
X000169Y012630D02*
X000169Y024441D01*
X108830Y024441D01*
X108830Y012630D01*
X000169Y012630D01*
D11*
X000169Y024441D02*
X000169Y028358D01*
X000169Y027591D02*
X001193Y027716D01*
X001193Y027465D01*
X000169Y027591D01*
X001193Y027488D01*
X001193Y027539D02*
X000169Y027591D01*
X001193Y027693D01*
X001193Y027642D02*
X000169Y027591D01*
X108830Y027591D01*
X107807Y027488D01*
X107807Y027465D02*
X108830Y027591D01*
X107807Y027693D01*
X107807Y027716D02*
X107807Y027465D01*
X107807Y027539D02*
X108830Y027591D01*
X107807Y027642D01*
X107807Y027716D02*
X108830Y027591D01*
X108830Y028358D02*
X108830Y024441D01*
X113929Y024441D01*
X113161Y024441D02*
X113263Y023417D01*
X113287Y023417D02*
X113161Y024441D01*
X113059Y023417D01*
X113035Y023417D02*
X113287Y023417D01*
X113212Y023417D02*
X113161Y024441D01*
X113110Y023417D01*
X113035Y023417D02*
X113161Y024441D01*
X113161Y000425D01*
X113263Y001449D01*
X113287Y001449D02*
X113161Y000425D01*
X113059Y001449D01*
X113035Y001449D02*
X113287Y001449D01*
X113212Y001449D02*
X113161Y000425D01*
X113110Y001449D01*
X113035Y001449D02*
X113161Y000425D01*
X113929Y000425D02*
X108830Y000425D01*
D12*
X112585Y011904D02*
X112585Y012225D01*
X112691Y012331D01*
X112798Y012331D01*
X112905Y012225D01*
X112905Y012011D01*
X112798Y011904D01*
X112585Y011904D01*
X112371Y012118D01*
X112264Y012331D01*
X112478Y012549D02*
X112264Y012762D01*
X112905Y012762D01*
X112905Y012549D02*
X112905Y012976D01*
X055408Y027953D02*
X055408Y028060D01*
X055301Y028167D01*
X054981Y028167D01*
X054981Y027953D01*
X055087Y027847D01*
X055301Y027847D01*
X055408Y027953D01*
X054981Y028167D02*
X055194Y028381D01*
X055408Y028487D01*
X054763Y028487D02*
X054763Y028381D01*
X054336Y027953D01*
X054336Y027847D01*
X054119Y027847D02*
X053691Y027847D01*
X054119Y028274D01*
X054119Y028381D01*
X054012Y028487D01*
X053798Y028487D01*
X053691Y028381D01*
X054336Y028487D02*
X054763Y028487D01*
D13*
X055778Y015669D02*
X055778Y015449D01*
X055748Y015449D01*
X055748Y015669D01*
X055778Y015669D01*
X055778Y015549D02*
X055748Y015549D01*
X055748Y015649D02*
X055778Y015649D01*
X055778Y003464D02*
X055778Y003244D01*
X055748Y003244D01*
X055748Y003464D01*
X055778Y003464D01*
X055778Y003344D02*
X055748Y003344D01*
X055748Y003444D02*
X055778Y003444D01*
D14*
X055960Y003354D03*
X056157Y003354D03*
X056354Y003354D03*
X056551Y003354D03*
X056748Y003354D03*
X056944Y003354D03*
X057141Y003354D03*
X057173Y005370D03*
X056976Y005370D03*
X056779Y005370D03*
X056582Y005370D03*
X056385Y005370D03*
X056189Y005370D03*
X055992Y005370D03*
X055795Y005370D03*
X055960Y015559D03*
X056157Y015559D03*
X056354Y015559D03*
X056551Y015559D03*
X056748Y015559D03*
X056944Y015559D03*
X057141Y015559D03*
X057173Y017575D03*
X056976Y017575D03*
X056779Y017575D03*
X056582Y017575D03*
X056385Y017575D03*
X056189Y017575D03*
X055992Y017575D03*
X055795Y017575D03*
D15*
X055460Y017272D03*
X055460Y017075D03*
X055460Y016878D03*
X055460Y016681D03*
X055460Y016484D03*
X055460Y016287D03*
X055460Y016091D03*
X055460Y015894D03*
X057476Y015862D03*
X057476Y016059D03*
X057476Y016256D03*
X057476Y016453D03*
X057476Y016650D03*
X057476Y016846D03*
X057476Y017043D03*
X057476Y017240D03*
X057476Y005035D03*
X057476Y004839D03*
X057476Y004642D03*
X057476Y004445D03*
X057476Y004248D03*
X057476Y004051D03*
X057476Y003854D03*
X057476Y003657D03*
X055460Y003689D03*
X055460Y003886D03*
X055460Y004083D03*
X055460Y004280D03*
X055460Y004476D03*
X055460Y004673D03*
X055460Y004870D03*
X055460Y005067D03*
D16*
X030484Y006331D03*
X030484Y018535D03*
D17*
X026031Y017535D03*
X026031Y019535D03*
X026031Y007331D03*
X026031Y005331D03*
D18*
X036645Y006368D03*
X036645Y006868D03*
X038496Y006868D03*
X038496Y006368D03*
X038496Y007368D03*
X036645Y007368D03*
X036645Y007868D03*
X038496Y007868D03*
X064598Y007943D03*
X064598Y008443D03*
X064598Y008943D03*
X064598Y009443D03*
X066448Y009443D03*
X066448Y008943D03*
X066448Y008443D03*
X066448Y007943D03*
X066448Y005506D03*
X066448Y005006D03*
X066448Y004506D03*
X066448Y004006D03*
X064598Y004006D03*
X064598Y004506D03*
X064598Y005006D03*
X064598Y005506D03*
X064598Y016211D03*
X064598Y016711D03*
X064598Y017211D03*
X064598Y017711D03*
X066448Y017711D03*
X066448Y017211D03*
X066448Y016711D03*
X066448Y016211D03*
X066448Y020541D03*
X066448Y021041D03*
X066448Y021541D03*
X066448Y022041D03*
X064598Y022041D03*
X064598Y021541D03*
X064598Y021041D03*
X064598Y020541D03*
X038496Y020073D03*
X036645Y020073D03*
X036645Y019573D03*
X036645Y019073D03*
X038496Y019073D03*
X038496Y019573D03*
X038496Y018573D03*
X036645Y018573D03*
D19*
X033138Y022079D02*
X032618Y022079D01*
X029138Y022079D02*
X028618Y022079D01*
X028618Y023260D02*
X029138Y023260D01*
X032618Y023260D02*
X033138Y023260D01*
X009409Y023260D02*
X008889Y023260D01*
X006409Y023260D02*
X005889Y023260D01*
X001350Y019614D02*
X001350Y019094D01*
X001350Y015614D02*
X001350Y015094D01*
X001846Y013811D02*
X002366Y013811D01*
X005846Y013811D02*
X006366Y013811D01*
X006409Y010661D02*
X005889Y010661D01*
X008889Y010661D02*
X009409Y010661D01*
X001350Y007016D02*
X001350Y006496D01*
X001350Y003016D02*
X001350Y002496D01*
X001846Y001606D02*
X002366Y001606D01*
X005846Y001606D02*
X006366Y001606D01*
X028224Y009874D02*
X028744Y009874D01*
X032224Y009874D02*
X032744Y009874D01*
X032744Y011055D02*
X032224Y011055D01*
X028744Y011055D02*
X028224Y011055D01*
X095259Y002787D02*
X095779Y002787D01*
X098259Y002787D02*
X098779Y002787D01*
D20*
X076984Y002969D03*
X076984Y004969D03*
X076984Y008087D03*
X076984Y010087D03*
X076590Y013992D03*
X076590Y015992D03*
X093039Y016386D03*
X093039Y014386D03*
X092252Y020685D03*
X092252Y022685D03*
X078952Y022685D03*
X078952Y020685D03*
X034464Y016386D03*
X034464Y014386D03*
X034464Y004181D03*
X034464Y002181D03*
D21*
X038964Y003181D03*
X081484Y003969D03*
X081484Y009087D03*
X081090Y014992D03*
X088539Y015386D03*
X087752Y021685D03*
X083452Y021685D03*
X038964Y015386D03*
D22*
X060425Y013378D03*
X061173Y013378D03*
X060799Y014244D03*
X060819Y016921D03*
X061567Y016921D03*
X061193Y017787D03*
X061193Y005583D03*
X061567Y004717D03*
X060819Y004717D03*
X060799Y002039D03*
X061173Y001173D03*
X060425Y001173D03*
D23*
X041901Y004099D02*
X041901Y004924D01*
X041901Y010099D02*
X041901Y010924D01*
X041901Y016304D02*
X041901Y017129D01*
X041901Y022304D02*
X041901Y023129D01*
X011062Y020504D02*
X010237Y020504D01*
X005062Y020504D02*
X004237Y020504D01*
X004237Y008299D02*
X005062Y008299D01*
X010237Y008299D02*
X011062Y008299D01*
X077334Y017091D02*
X077334Y017916D01*
X079040Y018535D02*
X079865Y018535D01*
X085040Y018535D02*
X085865Y018535D01*
X086914Y018535D02*
X087739Y018535D01*
X092914Y018535D02*
X093739Y018535D01*
X096626Y019942D02*
X096626Y020767D01*
X103712Y021161D02*
X103712Y020336D01*
X101912Y023260D02*
X101087Y023260D01*
X107087Y023260D02*
X107912Y023260D01*
X077334Y023091D02*
X077334Y023916D01*
X103712Y015161D02*
X103712Y014336D01*
X096626Y013942D02*
X096626Y014767D01*
X101087Y011055D02*
X101912Y011055D01*
X107087Y011055D02*
X107912Y011055D01*
X100956Y008956D02*
X100956Y008131D01*
X091377Y009087D02*
X090552Y009087D01*
X085377Y009087D02*
X084552Y009087D01*
X084552Y003969D02*
X085377Y003969D01*
X090552Y003969D02*
X091377Y003969D01*
X100956Y002956D02*
X100956Y002131D01*
D24*
X009334Y006331D02*
X008389Y006331D01*
X005334Y006331D02*
X004389Y006331D01*
X004389Y018535D02*
X005334Y018535D01*
X008389Y018535D02*
X009334Y018535D01*
D25*
X009343Y016386D02*
X008743Y016386D01*
X008743Y015386D02*
X009343Y015386D01*
X013361Y015285D02*
X013361Y015885D01*
X015321Y015885D02*
X015321Y015285D01*
X017301Y015285D02*
X017301Y015885D01*
X019261Y015885D02*
X019261Y015285D01*
X022129Y015567D02*
X022729Y015567D01*
X022729Y017567D02*
X022129Y017567D01*
X009343Y014386D02*
X008743Y014386D01*
X002044Y010874D02*
X001444Y010874D01*
X001444Y009874D02*
X002044Y009874D01*
X002044Y008874D02*
X001444Y008874D01*
X013061Y009281D02*
X013661Y009281D01*
X018961Y009281D02*
X019561Y009281D01*
X022129Y005756D02*
X022729Y005756D01*
X022729Y003756D02*
X022129Y003756D01*
X019261Y003681D02*
X019261Y003081D01*
X017301Y003081D02*
X017301Y003681D01*
X015321Y003681D02*
X015321Y003081D01*
X013361Y003081D02*
X013361Y003681D01*
X009343Y003181D02*
X008743Y003181D01*
X008743Y004181D02*
X009343Y004181D01*
X009343Y002181D02*
X008743Y002181D01*
X053806Y009268D02*
X054406Y009268D01*
X054406Y010268D02*
X053806Y010268D01*
X053806Y011268D02*
X054406Y011268D01*
X074491Y010087D02*
X075091Y010087D01*
X075091Y008087D02*
X074491Y008087D01*
X074491Y004969D02*
X075091Y004969D01*
X075091Y002969D02*
X074491Y002969D01*
X074491Y014386D02*
X075091Y014386D01*
X075091Y016386D02*
X074491Y016386D01*
X074491Y020291D02*
X075091Y020291D01*
X075091Y022291D02*
X074491Y022291D01*
X055193Y021866D02*
X054593Y021866D01*
X054593Y022866D02*
X055193Y022866D01*
X055193Y023866D02*
X054593Y023866D01*
X019561Y021485D02*
X018961Y021485D01*
X013661Y021485D02*
X013061Y021485D01*
X002044Y021472D02*
X001444Y021472D01*
X001444Y022472D02*
X002044Y022472D01*
X002044Y023472D02*
X001444Y023472D01*
D26*
X004106Y022366D03*
X023004Y023366D03*
X025653Y022866D03*
X037677Y022472D03*
X068779Y018929D03*
X037283Y010268D03*
X025653Y010661D03*
X023004Y011161D03*
X025653Y014205D03*
X005968Y015780D03*
X004106Y009768D03*
X005968Y003575D03*
X025653Y002000D03*
X068779Y006724D03*
X092582Y003969D03*
X093582Y009087D03*
D27*
X092582Y009087D03*
X093582Y003969D03*
X067779Y006724D03*
X036283Y010268D03*
X026653Y010661D03*
X023004Y010161D03*
X026653Y014205D03*
X006968Y015780D03*
X004106Y010768D03*
X006968Y003575D03*
X026653Y002000D03*
X067779Y018929D03*
X036677Y022472D03*
X026653Y022866D03*
X023004Y022366D03*
X004106Y023366D03*
D28*
X025602Y020898D03*
X026704Y020898D03*
X026704Y016173D03*
X025602Y016173D03*
X030720Y013417D03*
X031822Y013417D03*
X026704Y008693D03*
X025602Y008693D03*
X025602Y003969D03*
X026704Y003969D03*
X030720Y001213D03*
X031822Y001213D03*
X052767Y003969D03*
X053870Y003969D03*
X058673Y004756D03*
X059775Y004756D03*
X061429Y003181D03*
X062531Y003181D03*
X057019Y002000D03*
X055917Y002000D03*
X058279Y001213D03*
X059381Y001213D03*
X070090Y003575D03*
X071193Y003575D03*
X071193Y004756D03*
X070090Y004756D03*
X062531Y006724D03*
X061429Y006724D03*
X054657Y007906D03*
X053555Y007906D03*
X052295Y008299D03*
X051193Y008299D03*
X051193Y007118D03*
X052295Y007118D03*
X052295Y010661D03*
X051193Y010661D03*
X058279Y013417D03*
X059381Y013417D03*
X057019Y014205D03*
X055917Y014205D03*
X061429Y015386D03*
X062531Y015386D03*
X059775Y016961D03*
X058673Y016961D03*
X053870Y015780D03*
X052767Y015780D03*
X061429Y018929D03*
X062531Y018929D03*
X070090Y020504D03*
X071193Y020504D03*
X071193Y021685D03*
X070090Y021685D03*
X054657Y020504D03*
X053555Y020504D03*
X052295Y020898D03*
X051193Y020898D03*
X051193Y019717D03*
X052295Y019717D03*
X052295Y022866D03*
X051193Y022866D03*
X070090Y016961D03*
X071193Y016961D03*
X071193Y015780D03*
X070090Y015780D03*
X087413Y010661D03*
X088515Y010661D03*
X071193Y009480D03*
X070090Y009480D03*
X070090Y008299D03*
X071193Y008299D03*
X087413Y005543D03*
X088515Y005543D03*
X005051Y005150D03*
X003948Y005150D03*
X003555Y017354D03*
X004657Y017354D03*
D29*
X043870Y017286D03*
X043870Y013586D03*
X043476Y005081D03*
X043476Y001381D03*
D30*
X035208Y005386D03*
X034027Y005386D03*
X034027Y006488D03*
X035208Y006488D03*
X039539Y008142D03*
X039539Y009244D03*
X063161Y008850D03*
X063161Y007748D03*
X063161Y005307D03*
X063161Y004205D03*
X072610Y004598D03*
X072610Y005701D03*
X072610Y007354D03*
X072610Y008457D03*
X072610Y014441D03*
X072610Y015543D03*
X063161Y016409D03*
X063161Y017512D03*
X072610Y019559D03*
X072610Y020661D03*
X063161Y021055D03*
X063161Y019953D03*
X039539Y019953D03*
X039539Y021055D03*
X035208Y018693D03*
X034027Y018693D03*
X034027Y017591D03*
X035208Y017591D03*
D31*
X096232Y011429D03*
X096232Y009894D03*
X098988Y021705D03*
X098988Y023240D03*
D32*
X105700Y014992D03*
X107236Y014992D03*
X104086Y002787D03*
X102551Y002787D03*
D33*
X098019Y004331D03*
X096019Y004331D03*
X096019Y008331D03*
X098019Y008331D03*
X099169Y014173D03*
X101169Y014173D03*
X101169Y018173D03*
X099169Y018173D03*
X049807Y020685D03*
X045807Y020685D03*
X045807Y022685D03*
X049807Y022685D03*
X049807Y010480D03*
X045807Y010480D03*
X045807Y008480D03*
X049807Y008480D03*
D34*
X058649Y011161D03*
X058649Y023366D03*
D35*
X057649Y023366D03*
X056649Y023366D03*
X056649Y022366D03*
X057649Y022366D03*
X058649Y022366D03*
X057649Y011161D03*
X056649Y011161D03*
X056649Y010161D03*
X057649Y010161D03*
X058649Y010161D03*
D36*
X058633Y010150D01*
X058633Y007630D01*
X056704Y005701D01*
X056704Y005661D01*
X056783Y005583D01*
X056783Y005386D01*
X056779Y005370D01*
X056783Y005346D01*
X056783Y004677D01*
X056665Y004559D01*
X056665Y003890D01*
X056350Y003575D01*
X056350Y003378D01*
X056354Y003354D01*
X056350Y003339D01*
X056350Y003142D01*
X056232Y003024D01*
X056232Y002315D01*
X055917Y002000D01*
X055326Y001409D01*
X052767Y003969D01*
X052728Y003969D01*
X050720Y001961D01*
X056547Y002472D02*
X057019Y002000D01*
X056547Y002472D02*
X056547Y002906D01*
X056586Y002906D01*
X056547Y002906D02*
X056547Y003339D01*
X056551Y003354D01*
X057141Y003354D02*
X057177Y003339D01*
X057354Y003161D01*
X057492Y003299D01*
X057354Y003161D02*
X058791Y001724D01*
X058279Y001213D01*
X059381Y001213D02*
X059421Y001173D01*
X060425Y001173D01*
X060563Y001606D02*
X060444Y001724D01*
X060444Y002354D01*
X060602Y002512D01*
X060602Y002630D01*
X060956Y002984D01*
X060956Y003575D01*
X061547Y004165D01*
X061547Y004717D01*
X061567Y004717D01*
X061507Y004717D01*
X061074Y005150D01*
X060956Y005150D01*
X060838Y005268D01*
X060838Y005898D01*
X060956Y006016D01*
X060956Y007118D01*
X061645Y007807D01*
X058870Y010583D01*
X057452Y010583D01*
X057059Y010189D01*
X056665Y010189D01*
X056649Y010161D01*
X054854Y010504D02*
X054106Y011252D01*
X054106Y011268D01*
X055169Y009677D02*
X056626Y011134D01*
X056649Y011161D01*
X054854Y010504D02*
X054854Y009087D01*
X054657Y008890D01*
X054657Y007906D01*
X053555Y007906D02*
X053555Y008693D01*
X054106Y009244D01*
X054106Y009268D01*
X055169Y009677D02*
X055169Y003890D01*
X055444Y003890D01*
X055460Y003886D01*
X055169Y003890D02*
X053948Y003890D01*
X053870Y003969D01*
X057019Y004441D02*
X057452Y004441D01*
X057476Y004445D01*
X057767Y003850D02*
X058673Y004756D01*
X058673Y004795D01*
X057649Y005819D01*
X056704Y005661D02*
X056468Y005661D01*
X056389Y005583D01*
X056389Y005386D01*
X056385Y005370D01*
X056582Y005370D02*
X056586Y005346D01*
X056586Y005071D01*
X056429Y004913D01*
X059775Y004756D02*
X059815Y004717D01*
X060819Y004717D01*
X061429Y003535D02*
X063161Y005268D01*
X063161Y005307D01*
X064067Y005307D01*
X064460Y004913D01*
X064578Y005031D01*
X064598Y005006D01*
X064618Y004992D01*
X064696Y005071D01*
X065090Y004677D01*
X065090Y004323D01*
X064775Y004008D01*
X064618Y004008D01*
X064598Y004006D01*
X065011Y003732D02*
X063082Y003732D01*
X062531Y003181D01*
X062649Y003693D02*
X063161Y004205D01*
X063200Y004205D01*
X063476Y004480D01*
X064578Y004480D01*
X064598Y004506D01*
X064618Y004520D01*
X065011Y003732D02*
X065759Y004480D01*
X065956Y004480D01*
X065956Y005740D01*
X066960Y006744D01*
X065956Y007748D01*
X065917Y007748D01*
X064893Y006724D01*
X062531Y006724D01*
X062177Y007236D02*
X061665Y006724D01*
X061429Y006724D01*
X061193Y006488D01*
X061193Y005583D01*
X065956Y004480D02*
X066429Y004480D01*
X066448Y004506D01*
X066468Y004992D02*
X066448Y005006D01*
X066468Y004992D02*
X069854Y004992D01*
X070090Y004756D01*
X071193Y004756D02*
X071232Y004598D01*
X072610Y004598D01*
X072649Y004598D01*
X072728Y004520D01*
X075248Y004520D01*
X075681Y004953D01*
X076980Y004953D01*
X076984Y004969D01*
X074815Y004992D02*
X074791Y004969D01*
X074815Y004992D02*
X074815Y005898D01*
X076980Y008063D01*
X076984Y008087D01*
X076193Y008654D02*
X081035Y008654D01*
X081468Y009087D01*
X081484Y009087D01*
X084964Y009087D02*
X084972Y009087D01*
X086547Y010661D01*
X087413Y010661D01*
X087452Y010661D01*
X088555Y011764D01*
X089460Y011764D01*
X092137Y009087D01*
X092582Y009087D01*
X092964Y008614D02*
X093437Y009087D01*
X093582Y009087D01*
X093594Y009047D01*
X093594Y004008D01*
X093582Y003969D01*
X095996Y003969D01*
X095996Y004323D01*
X096019Y004331D01*
X098019Y004331D02*
X098043Y004323D01*
X098043Y003260D01*
X098515Y002787D01*
X098519Y002787D01*
X100956Y002551D02*
X100956Y002543D01*
X100996Y002551D01*
X101232Y002787D01*
X102551Y002787D01*
X100956Y002551D02*
X098043Y005465D01*
X098043Y008299D01*
X098019Y008331D01*
X096035Y008339D02*
X096019Y008331D01*
X096035Y008339D02*
X096035Y009677D01*
X096232Y009874D01*
X096232Y009894D01*
X100956Y010504D02*
X101468Y011016D01*
X101500Y011055D01*
X101468Y011055D01*
X101114Y011409D01*
X096232Y011409D01*
X096232Y011429D01*
X100956Y010504D02*
X100956Y008543D01*
X104106Y007669D02*
X107492Y011055D01*
X107500Y011055D01*
X099145Y014165D02*
X098082Y013102D01*
X096665Y013102D01*
X095405Y014362D01*
X093043Y014362D01*
X093039Y014386D01*
X094500Y016488D02*
X096626Y014362D01*
X096626Y014354D01*
X099145Y014165D02*
X099169Y014173D01*
X103712Y014748D02*
X103988Y014992D01*
X105700Y014992D01*
X104145Y015189D02*
X103712Y014756D01*
X103712Y014748D01*
X104145Y015189D02*
X101193Y018142D01*
X101169Y018173D01*
X099169Y018173D02*
X099145Y018181D01*
X099145Y021528D01*
X098988Y021685D01*
X098988Y021705D01*
X101271Y023220D02*
X103712Y020780D01*
X103712Y020748D01*
X096626Y020354D02*
X096626Y020346D01*
X093043Y016764D01*
X093043Y016409D01*
X093039Y016386D01*
X093830Y015819D02*
X094500Y016488D01*
X093830Y015819D02*
X088948Y015819D01*
X088555Y015425D01*
X088539Y015386D01*
X088515Y015386D01*
X086507Y017394D01*
X087326Y018535D02*
X087334Y018535D01*
X087334Y021291D01*
X087728Y021685D01*
X087752Y021685D01*
X083452Y021685D02*
X082649Y021685D01*
X079500Y018535D01*
X079452Y018535D01*
X079421Y018535D01*
X078200Y017315D01*
X077531Y017315D01*
X077334Y017504D01*
X077334Y017472D01*
X077492Y017315D01*
X077492Y015543D01*
X076626Y014677D01*
X076626Y014008D01*
X076590Y013992D01*
X076074Y013102D02*
X074791Y014386D01*
X072610Y014441D02*
X071626Y014441D01*
X070622Y015445D01*
X070444Y015268D01*
X065090Y015268D01*
X065011Y015189D01*
X063200Y015189D01*
X062885Y014874D01*
X062649Y014874D01*
X061193Y013417D01*
X061173Y013378D01*
X061153Y013378D01*
X060720Y013811D01*
X060563Y013811D01*
X059500Y014874D01*
X060149Y015524D01*
X060130Y015543D01*
X058161Y015543D01*
X057885Y015268D01*
X056547Y015268D01*
X056547Y015543D01*
X056551Y015559D01*
X056354Y015559D02*
X056350Y015583D01*
X056350Y015858D01*
X056547Y016055D01*
X056547Y016252D01*
X056665Y016370D01*
X056665Y016764D01*
X056783Y016882D01*
X056783Y017551D01*
X056779Y017575D01*
X056783Y017591D01*
X056783Y017787D01*
X056704Y017866D01*
X056704Y017906D01*
X058633Y019835D01*
X058633Y022354D01*
X058649Y022366D01*
X057216Y022945D02*
X056665Y022394D01*
X056649Y022366D01*
X055838Y022551D02*
X056626Y023339D01*
X056649Y023366D01*
X057216Y023535D02*
X057216Y022945D01*
X058649Y023366D02*
X058673Y023378D01*
X058988Y023378D01*
X059106Y023496D01*
X059342Y023496D01*
X062098Y020740D01*
X060759Y019402D01*
X060759Y019087D01*
X058673Y017000D01*
X058673Y016961D01*
X057964Y016252D01*
X057964Y015858D01*
X057689Y015583D01*
X057177Y015583D01*
X057141Y015559D01*
X057476Y015862D02*
X057492Y015858D01*
X057689Y015858D01*
X057767Y015937D01*
X057767Y018496D01*
X056704Y017866D02*
X056468Y017866D01*
X056389Y017787D01*
X056389Y017591D01*
X056385Y017575D01*
X056582Y017575D02*
X056586Y017551D01*
X056586Y017276D01*
X056429Y017118D01*
X057019Y016646D02*
X057452Y016646D01*
X057476Y016650D01*
X055460Y016091D02*
X055444Y016094D01*
X055169Y016094D01*
X055169Y020937D01*
X055838Y021606D01*
X055838Y022551D01*
X055641Y023102D02*
X054893Y023850D01*
X054893Y023866D01*
X055641Y023102D02*
X055641Y021685D01*
X054657Y020701D01*
X054657Y020504D01*
X053594Y020504D02*
X053555Y020504D01*
X052295Y020504D01*
X052295Y019717D01*
X051193Y019717D02*
X051193Y020898D01*
X051153Y020701D01*
X049815Y020701D01*
X049807Y020685D01*
X052295Y020504D02*
X052295Y020898D01*
X052295Y022866D01*
X051193Y022866D02*
X049972Y022866D01*
X049815Y022709D01*
X049807Y022685D01*
X045807Y022685D02*
X045799Y022709D01*
X041901Y022709D01*
X041901Y022717D01*
X041862Y022709D01*
X041626Y022472D01*
X040051Y022472D01*
X040051Y019598D01*
X038988Y018535D01*
X038988Y018378D01*
X038476Y017866D01*
X037866Y018476D01*
X038004Y018614D01*
X038004Y019244D01*
X038319Y019559D01*
X038476Y019559D01*
X038496Y019573D01*
X038515Y019559D01*
X038515Y019087D02*
X038496Y019073D01*
X038515Y019087D02*
X038673Y019087D01*
X039185Y019598D01*
X038712Y020071D01*
X038515Y020071D01*
X038496Y020073D01*
X038476Y020110D01*
X038122Y020110D01*
X037374Y020858D01*
X037334Y020858D01*
X036389Y021803D01*
X033161Y021803D01*
X032885Y022079D01*
X032878Y022079D01*
X032925Y022866D02*
X033791Y022000D01*
X036468Y022000D01*
X037413Y021055D01*
X039539Y021055D01*
X037137Y020583D02*
X037137Y019874D01*
X036862Y019598D01*
X036665Y019598D01*
X036645Y019573D01*
X036645Y019073D02*
X036626Y019047D01*
X035563Y019047D01*
X035208Y018693D01*
X034027Y018693D02*
X035405Y020071D01*
X036626Y020071D01*
X036645Y020073D01*
X039185Y019598D02*
X039539Y019953D01*
X037866Y018476D02*
X037059Y017669D01*
X037059Y016961D01*
X034500Y014402D01*
X034464Y014386D01*
X034421Y014402D01*
X030405Y018417D01*
X030484Y018535D01*
X028870Y017906D01*
X028870Y022079D01*
X028878Y022079D01*
X027492Y022866D02*
X026389Y023969D01*
X003240Y023969D01*
X001744Y022472D01*
X003240Y021488D02*
X004106Y022354D01*
X004106Y022366D01*
X003240Y021488D02*
X001744Y021488D01*
X001744Y021472D01*
X004649Y020504D02*
X004657Y020504D01*
X004657Y018732D01*
X004854Y018535D01*
X004862Y018535D01*
X003555Y017354D02*
X001468Y019441D01*
X001350Y019323D01*
X001350Y019354D01*
X008862Y018535D02*
X008870Y018535D01*
X009027Y018378D01*
X009027Y017748D01*
X009067Y017748D01*
X012767Y021449D01*
X013358Y021449D01*
X013361Y021485D01*
X010649Y020504D02*
X010641Y020504D01*
X009185Y021961D01*
X009185Y023260D01*
X009149Y023260D01*
X023004Y023339D02*
X023004Y023366D01*
X023004Y023339D02*
X025051Y023339D01*
X025563Y022827D01*
X025653Y022866D01*
X025641Y022866D01*
X025602Y022827D01*
X025602Y020898D01*
X026665Y020898D02*
X026704Y020898D01*
X026704Y020228D01*
X026035Y019559D01*
X026031Y019535D01*
X025917Y019402D01*
X022452Y015937D01*
X022452Y015583D01*
X022429Y015567D01*
X022413Y015543D01*
X020681Y013811D01*
X006106Y013811D01*
X007334Y016094D02*
X009043Y014386D01*
X009618Y014835D02*
X009067Y015386D01*
X009043Y015386D01*
X007334Y016094D02*
X007019Y015780D01*
X006968Y015780D01*
X006980Y015780D01*
X005405Y017354D01*
X004657Y017354D01*
X009027Y017748D02*
X009027Y016409D01*
X009043Y016386D01*
X009618Y014835D02*
X015484Y014835D01*
X016232Y015583D01*
X017295Y015583D01*
X017301Y015585D01*
X019261Y015585D02*
X019263Y015622D01*
X020484Y015622D01*
X022429Y017567D01*
X024657Y017157D02*
X025366Y017866D01*
X029815Y017866D01*
X030484Y018535D01*
X034027Y017591D02*
X034500Y017591D01*
X034500Y016409D01*
X034464Y016386D01*
X034500Y017591D02*
X035208Y017591D01*
X038988Y015425D02*
X040287Y016724D01*
X041862Y016724D01*
X041901Y016717D01*
X041901Y016724D01*
X042452Y017276D01*
X043870Y017276D01*
X043870Y017286D01*
X045799Y015543D02*
X043870Y013614D01*
X043870Y013586D01*
X045799Y015543D02*
X045799Y020661D01*
X045807Y020685D01*
X040051Y022472D02*
X037677Y022472D01*
X036677Y022472D02*
X034500Y022472D01*
X033004Y023969D01*
X029618Y023969D01*
X028909Y023260D01*
X028878Y023260D01*
X027492Y022866D02*
X032925Y022866D01*
X026665Y022866D02*
X026653Y022866D01*
X026665Y022866D02*
X026665Y020898D01*
X026031Y019535D02*
X025996Y019520D01*
X025917Y019441D01*
X023004Y022354D01*
X023004Y022366D01*
X026031Y017535D02*
X026035Y017512D01*
X027019Y016528D01*
X026704Y016213D01*
X026704Y016173D01*
X026704Y014244D01*
X026665Y014205D01*
X026653Y014205D01*
X025653Y014205D02*
X025641Y014205D01*
X025602Y014244D01*
X025602Y016173D01*
X025602Y016213D01*
X024657Y017157D01*
X030759Y013417D02*
X031901Y014559D01*
X031822Y013417D02*
X036980Y013417D01*
X038948Y015386D01*
X038964Y015386D01*
X038988Y015425D01*
X030759Y013417D02*
X030720Y013417D01*
X016429Y013417D01*
X023004Y011161D02*
X023004Y011134D01*
X025051Y011134D01*
X025563Y010622D01*
X025653Y010661D01*
X025641Y010661D01*
X025602Y010622D01*
X025602Y008693D01*
X026665Y008693D02*
X026704Y008693D01*
X026704Y008024D01*
X026035Y007354D01*
X026031Y007331D01*
X025878Y007236D01*
X022452Y003811D01*
X022452Y003772D01*
X022429Y003756D01*
X022413Y003732D01*
X020287Y001606D01*
X006106Y001606D01*
X007295Y003929D02*
X009043Y002181D01*
X009618Y002630D02*
X009067Y003181D01*
X009043Y003181D01*
X007295Y003929D02*
X006980Y003614D01*
X006968Y003575D01*
X006941Y003575D01*
X006783Y003417D01*
X005051Y005150D01*
X003948Y005150D02*
X002925Y005150D01*
X001350Y006724D01*
X001350Y006756D01*
X004657Y006528D02*
X004854Y006331D01*
X004862Y006331D01*
X004657Y006528D02*
X004657Y008299D01*
X004649Y008299D01*
X003240Y008890D02*
X004106Y009756D01*
X004106Y009768D01*
X003633Y011764D02*
X001744Y009874D01*
X001744Y008890D02*
X001744Y008874D01*
X001744Y008890D02*
X003240Y008890D01*
X009149Y010661D02*
X009185Y010661D01*
X011114Y008732D01*
X010681Y008299D01*
X010649Y008299D01*
X012767Y009244D02*
X009067Y005543D01*
X009027Y005543D01*
X009027Y004205D01*
X009043Y004181D01*
X009027Y005543D02*
X009027Y006173D01*
X008870Y006331D01*
X008862Y006331D01*
X015484Y002630D02*
X016232Y003378D01*
X017295Y003378D01*
X017301Y003381D01*
X019261Y003381D02*
X019263Y003417D01*
X020090Y003417D01*
X022429Y005756D01*
X024657Y004953D02*
X025366Y005661D01*
X028476Y005661D01*
X028476Y009874D01*
X028484Y009874D01*
X027059Y011055D02*
X026665Y010661D01*
X026653Y010661D01*
X026665Y010622D01*
X026665Y008693D01*
X028594Y011764D02*
X031114Y009244D01*
X039539Y009244D01*
X040523Y009165D02*
X039539Y008181D01*
X039539Y008142D01*
X039224Y007866D01*
X038515Y007866D01*
X038496Y007868D01*
X038988Y007591D02*
X039539Y008142D01*
X038988Y007591D02*
X038988Y007197D01*
X038673Y006882D01*
X038515Y006882D01*
X038496Y006868D01*
X038319Y007354D02*
X038004Y007039D01*
X038004Y006409D01*
X037708Y006114D01*
X037728Y006094D01*
X038909Y006094D01*
X041901Y009087D01*
X041901Y010512D01*
X041901Y010504D01*
X045799Y010504D01*
X045807Y010480D01*
X049807Y010480D02*
X049815Y010504D01*
X049972Y010661D01*
X051193Y010661D01*
X052295Y010661D02*
X052295Y008299D01*
X052295Y007906D01*
X053555Y007906D01*
X052295Y007906D02*
X052295Y007118D01*
X051193Y007118D02*
X051193Y008299D01*
X051153Y008299D01*
X050996Y008457D01*
X049815Y008457D01*
X049807Y008480D01*
X045807Y008480D02*
X045799Y008457D01*
X045799Y003732D01*
X043476Y001409D01*
X043476Y001381D01*
X038948Y003181D02*
X036980Y001213D01*
X031822Y001213D01*
X030759Y001213D02*
X030720Y001213D01*
X016429Y001213D01*
X015484Y002630D02*
X009618Y002630D01*
X002106Y001606D02*
X002098Y001606D01*
X001153Y002551D01*
X001350Y002748D01*
X001350Y002756D01*
X024657Y004953D02*
X025602Y004008D01*
X025602Y003969D01*
X025602Y002039D01*
X025641Y002000D01*
X025653Y002000D01*
X026653Y002000D02*
X026665Y002000D01*
X026704Y002039D01*
X026704Y003969D01*
X026704Y004008D01*
X027019Y004323D01*
X026035Y005307D01*
X026031Y005331D01*
X028476Y005661D02*
X029815Y005661D01*
X030484Y006331D01*
X030405Y006213D01*
X034421Y002197D01*
X034464Y002181D01*
X034500Y002197D01*
X037059Y004756D01*
X037059Y005465D01*
X037708Y006114D01*
X036645Y006868D02*
X036626Y006843D01*
X035563Y006843D01*
X035208Y006488D01*
X034027Y006488D02*
X035405Y007866D01*
X036626Y007866D01*
X036645Y007868D01*
X036626Y007394D02*
X035996Y007394D01*
X036626Y007394D02*
X036645Y007368D01*
X038319Y007354D02*
X038476Y007354D01*
X038496Y007368D01*
X038515Y007354D01*
X040523Y009165D02*
X038948Y010740D01*
X032492Y010740D01*
X032492Y009874D01*
X032484Y009874D01*
X032492Y010740D02*
X032492Y011055D01*
X032484Y011055D01*
X028594Y011764D02*
X003633Y011764D01*
X002106Y013811D02*
X002098Y013811D01*
X000956Y014953D01*
X001350Y015346D01*
X001350Y015354D01*
X023004Y010161D02*
X023004Y010150D01*
X025917Y007236D01*
X025996Y007315D01*
X026031Y007331D01*
X034027Y005386D02*
X034500Y005386D01*
X034500Y004205D01*
X034464Y004181D01*
X034500Y005386D02*
X035208Y005386D01*
X038988Y003220D02*
X040287Y004520D01*
X041862Y004520D01*
X041901Y004512D01*
X041901Y004520D01*
X042452Y005071D01*
X043476Y005071D01*
X043476Y005081D01*
X038988Y003220D02*
X038964Y003181D01*
X038948Y003181D01*
X031862Y002315D02*
X030759Y001213D01*
X057476Y003657D02*
X057492Y003654D01*
X057689Y003654D01*
X057767Y003732D01*
X057767Y003850D01*
X060799Y002551D02*
X061429Y003181D01*
X061429Y003535D01*
X061901Y003417D02*
X062177Y003693D01*
X062649Y003693D01*
X061901Y003417D02*
X061901Y002787D01*
X061803Y002689D01*
X061822Y002669D01*
X062885Y002669D01*
X063279Y003063D01*
X070444Y003063D01*
X070602Y003220D01*
X070641Y003220D01*
X070661Y003240D01*
X071389Y002512D01*
X075248Y002512D01*
X075681Y002945D01*
X076980Y002945D01*
X076984Y002969D01*
X077019Y002945D01*
X078397Y001567D01*
X083279Y001567D01*
X085130Y003417D01*
X085602Y003417D01*
X087216Y005031D01*
X087767Y005031D01*
X088279Y005543D01*
X088515Y005543D01*
X090523Y003535D01*
X090956Y003969D01*
X090964Y003969D01*
X092582Y003969D01*
X095523Y002787D02*
X095996Y003260D01*
X095996Y003969D01*
X095523Y002787D02*
X095519Y002787D01*
X104086Y002787D02*
X104106Y002787D01*
X104106Y007669D01*
X092964Y008614D02*
X090523Y008614D01*
X090484Y008614D01*
X087452Y005583D01*
X087452Y005543D01*
X087413Y005543D01*
X086547Y005543D01*
X084972Y003969D01*
X084964Y003969D01*
X081484Y003969D02*
X081468Y003969D01*
X081035Y003535D01*
X076193Y003535D01*
X075799Y003142D01*
X075602Y003142D01*
X075444Y002984D01*
X074815Y002984D01*
X074791Y002969D01*
X071193Y003575D02*
X071193Y004756D01*
X070090Y003575D02*
X069696Y003969D01*
X066468Y003969D01*
X066448Y004006D01*
X070563Y003339D02*
X070563Y006724D01*
X072610Y006724D01*
X072610Y005701D01*
X072610Y006724D02*
X072610Y007354D01*
X070563Y006724D02*
X068779Y006724D01*
X067779Y006724D02*
X067767Y006724D01*
X067374Y006331D01*
X066960Y006744D01*
X065956Y007748D02*
X065956Y008142D01*
X066232Y008417D01*
X066429Y008417D01*
X066448Y008443D01*
X066448Y008943D02*
X066468Y008969D01*
X069578Y008969D01*
X070090Y009480D01*
X071193Y009480D02*
X071193Y008299D01*
X071232Y008457D01*
X072610Y008457D01*
X072649Y008457D01*
X073830Y009638D01*
X075248Y009638D01*
X075681Y010071D01*
X076980Y010071D01*
X076984Y010087D01*
X076193Y008654D02*
X075641Y008102D01*
X074815Y008102D01*
X074791Y008087D01*
X070090Y008299D02*
X069736Y007945D01*
X066468Y007945D01*
X066448Y007943D01*
X065090Y008772D02*
X064775Y008457D01*
X064657Y008457D01*
X064598Y008443D01*
X064618Y008457D01*
X064578Y008929D02*
X064598Y008943D01*
X064578Y008929D02*
X064421Y008929D01*
X063437Y007945D01*
X063161Y007748D01*
X063122Y007748D01*
X062610Y007236D01*
X062177Y007236D01*
X063161Y007748D02*
X063319Y007906D01*
X064578Y007906D01*
X064598Y007943D01*
X062689Y008850D02*
X061645Y007807D01*
X062689Y008850D02*
X063161Y008850D01*
X064539Y010228D01*
X065090Y009677D01*
X065090Y008772D01*
X076074Y013102D02*
X079185Y013102D01*
X081074Y014992D01*
X081090Y014992D01*
X081114Y015031D01*
X084618Y018535D01*
X085452Y018535D01*
X090878Y019323D02*
X092216Y020661D01*
X092252Y020685D01*
X092256Y022669D02*
X094854Y020071D01*
X093319Y018535D01*
X093326Y018535D01*
X078952Y020685D02*
X078948Y020701D01*
X078437Y020701D01*
X076488Y022650D01*
X076468Y022630D01*
X076429Y022630D01*
X075130Y021331D01*
X074933Y021331D01*
X074067Y020465D01*
X073555Y020465D01*
X072649Y019559D01*
X072610Y019559D01*
X070504Y017453D01*
X070563Y017394D01*
X070563Y015504D01*
X070622Y015445D01*
X070090Y015780D02*
X069696Y016173D01*
X066468Y016173D01*
X066448Y016211D01*
X066232Y016488D02*
X066035Y016488D01*
X064933Y015386D01*
X062531Y015386D01*
X062492Y015386D01*
X061941Y014835D01*
X061429Y015386D02*
X060799Y014756D01*
X060799Y014244D01*
X060425Y013378D02*
X059421Y013378D01*
X059381Y013417D01*
X058279Y013417D02*
X058279Y015189D01*
X060149Y015524D02*
X061547Y016921D01*
X061567Y016921D01*
X061586Y016961D01*
X062137Y017512D01*
X063161Y017512D01*
X064342Y018693D01*
X065090Y017945D01*
X065090Y017039D01*
X064775Y016724D01*
X064657Y016724D01*
X064598Y016711D01*
X064618Y016724D01*
X064421Y017197D02*
X063476Y016252D01*
X063161Y016409D01*
X063122Y016409D01*
X062610Y015898D01*
X062177Y015898D01*
X061665Y015386D01*
X061429Y015386D01*
X063161Y016409D02*
X063358Y016213D01*
X064578Y016213D01*
X064598Y016211D01*
X065838Y016961D02*
X066074Y017197D01*
X066429Y017197D01*
X066448Y017211D01*
X066626Y016724D02*
X066941Y017039D01*
X066941Y018102D01*
X067767Y018929D01*
X067779Y018929D01*
X067531Y018732D01*
X065956Y020307D01*
X065917Y020307D01*
X064539Y018929D01*
X062531Y018929D01*
X062177Y019441D02*
X061665Y018929D01*
X061429Y018929D01*
X061193Y018693D01*
X061193Y017787D01*
X061074Y017354D02*
X061507Y016921D01*
X061567Y016921D01*
X060819Y016921D02*
X059815Y016921D01*
X059775Y016961D01*
X060838Y017472D02*
X060956Y017354D01*
X061074Y017354D01*
X060838Y017472D02*
X060838Y018102D01*
X060956Y018220D01*
X060956Y019323D01*
X062393Y020760D01*
X059185Y023969D01*
X057649Y023969D01*
X057216Y023535D01*
X054893Y021866D02*
X054893Y021843D01*
X053594Y020543D01*
X053594Y020504D01*
X062177Y019441D02*
X062610Y019441D01*
X063122Y019953D01*
X063161Y019953D01*
X063712Y020504D01*
X064578Y020504D01*
X064598Y020541D01*
X064618Y020583D01*
X064815Y020780D01*
X065011Y020780D01*
X065287Y021055D01*
X064815Y021528D01*
X064618Y021528D01*
X064598Y021541D01*
X064578Y021055D02*
X063161Y021055D01*
X062689Y021055D01*
X062393Y020760D01*
X064578Y021055D02*
X064598Y021041D01*
X064618Y021055D01*
X065956Y020740D02*
X065956Y020307D01*
X065956Y020740D02*
X066232Y021016D01*
X066429Y021016D01*
X066448Y021041D01*
X066448Y020541D02*
X066468Y020504D01*
X070090Y020504D01*
X071193Y020504D02*
X072452Y020504D01*
X072610Y020661D01*
X073988Y020661D01*
X075011Y021685D01*
X074539Y021685D02*
X071193Y021685D01*
X070090Y021685D02*
X069972Y021567D01*
X066468Y021567D01*
X066448Y021541D01*
X068909Y019047D02*
X068791Y018929D01*
X068779Y018929D01*
X068909Y019047D02*
X070504Y017453D01*
X070090Y016961D02*
X069500Y016961D01*
X071193Y016961D02*
X075602Y016961D01*
X077964Y019323D01*
X077964Y021685D02*
X078948Y022669D01*
X078952Y022685D01*
X077334Y023535D02*
X076468Y022669D01*
X076488Y022650D01*
X077334Y023504D02*
X077334Y023535D01*
X092252Y022685D02*
X092256Y022669D01*
X098988Y023240D02*
X098988Y023260D01*
X101500Y023260D01*
X101271Y023220D01*
X107256Y023024D02*
X107492Y023260D01*
X107500Y023260D01*
X107256Y023024D02*
X107256Y014992D01*
X107236Y014992D01*
X090523Y008654D02*
X088515Y010661D01*
X090523Y008654D02*
X090956Y009087D01*
X090964Y009087D01*
X090523Y008654D02*
X090523Y008614D01*
X070661Y003240D02*
X070563Y003339D01*
X061803Y002689D02*
X061193Y002079D01*
X061193Y001606D01*
X060563Y001606D01*
X061193Y001606D02*
X061193Y001173D01*
X061173Y001173D01*
X060799Y002039D02*
X060799Y002551D01*
X028484Y011055D02*
X027059Y011055D01*
X013361Y009281D02*
X013358Y009244D01*
X012767Y009244D01*
X051153Y014205D02*
X052728Y015780D01*
X052767Y015780D01*
X055130Y013417D01*
X055917Y014205D01*
X056350Y014638D01*
X056350Y015543D01*
X056354Y015559D01*
X056547Y015268D02*
X056547Y014677D01*
X057019Y014205D01*
X054185Y016094D02*
X053870Y015780D01*
X054185Y016094D02*
X055169Y016094D01*
X064421Y017197D02*
X064578Y017197D01*
X064598Y017211D01*
X066232Y016488D02*
X066429Y016685D01*
X066448Y016711D01*
X066468Y016724D01*
X066626Y016724D01*
X071193Y015780D02*
X072374Y015780D01*
X072610Y015543D01*
X076153Y015543D01*
X076586Y015976D01*
X076590Y015992D01*
X074791Y016386D02*
X074775Y016370D01*
X071665Y016370D01*
D37*
X071665Y016370D03*
X069500Y016961D03*
X065838Y016961D03*
X058279Y015189D03*
X061941Y014835D03*
X057019Y016646D03*
X056429Y017118D03*
X057767Y018496D03*
X051153Y014205D03*
X031901Y014559D03*
X016429Y013417D03*
X035996Y007394D03*
X031862Y002315D03*
X016429Y001213D03*
X050720Y001961D03*
X056586Y002906D03*
X057492Y003299D03*
X057019Y004441D03*
X056429Y004913D03*
X057649Y005819D03*
X086507Y017394D03*
X090878Y019323D03*
X077964Y019323D03*
X077964Y021685D03*
X075011Y021685D03*
X074539Y021685D03*
X037137Y020583D03*
M02*
