G75*
%MOIN*%
%OFA0B0*%
%FSLAX24Y24*%
%IPPOS*%
%LPD*%
%AMOC8*
5,1,8,0,0,1.08239X$1,22.5*
%
%ADD10C,0.0600*%
%ADD11C,0.0905*%
%ADD12C,0.1025*%
%ADD13C,0.0680*%
%ADD14C,0.0730*%
%ADD15R,0.0730X0.0730*%
%ADD16C,0.0830*%
%ADD17C,0.0595*%
%ADD18R,0.0680X0.0680*%
%ADD19OC8,0.0680*%
%ADD20C,0.0480*%
D10*
X001846Y001606D02*
X002366Y001606D01*
X001350Y002496D02*
X001350Y003016D01*
X005846Y001606D02*
X006366Y001606D01*
X001350Y006496D02*
X001350Y007016D01*
X005889Y010661D02*
X006409Y010661D01*
X008889Y010661D02*
X009409Y010661D01*
X006366Y013811D02*
X005846Y013811D01*
X002366Y013811D02*
X001846Y013811D01*
X001350Y015094D02*
X001350Y015614D01*
X001350Y019094D02*
X001350Y019614D01*
X005889Y023260D02*
X006409Y023260D01*
X008889Y023260D02*
X009409Y023260D01*
X028618Y023260D02*
X029138Y023260D01*
X032618Y023260D02*
X033138Y023260D01*
X033138Y022079D02*
X032618Y022079D01*
X029138Y022079D02*
X028618Y022079D01*
X028744Y011055D02*
X028224Y011055D01*
X028224Y009874D02*
X028744Y009874D01*
X032224Y009874D02*
X032744Y009874D01*
X032744Y011055D02*
X032224Y011055D01*
X095259Y002787D02*
X095779Y002787D01*
X098259Y002787D02*
X098779Y002787D01*
D11*
X100956Y002956D02*
X100956Y002131D01*
X091377Y003969D02*
X090552Y003969D01*
X085377Y003969D02*
X084552Y003969D01*
X100956Y008131D02*
X100956Y008956D01*
X101087Y011055D02*
X101912Y011055D01*
X107087Y011055D02*
X107912Y011055D01*
X096626Y013942D02*
X096626Y014767D01*
X103712Y015161D02*
X103712Y014336D01*
X093739Y018535D02*
X092914Y018535D01*
X096626Y019942D02*
X096626Y020767D01*
X103712Y021161D02*
X103712Y020336D01*
X101912Y023260D02*
X101087Y023260D01*
X107087Y023260D02*
X107912Y023260D01*
X087739Y018535D02*
X086914Y018535D01*
X085865Y018535D02*
X085040Y018535D01*
X079865Y018535D02*
X079040Y018535D01*
X077334Y017916D02*
X077334Y017091D01*
X077334Y023091D02*
X077334Y023916D01*
X041901Y023129D02*
X041901Y022304D01*
X041901Y017129D02*
X041901Y016304D01*
X041901Y010924D02*
X041901Y010099D01*
X041901Y004924D02*
X041901Y004099D01*
X011062Y008299D02*
X010237Y008299D01*
X005062Y008299D02*
X004237Y008299D01*
X004237Y020504D02*
X005062Y020504D01*
X010237Y020504D02*
X011062Y020504D01*
X084552Y009087D02*
X085377Y009087D01*
X090552Y009087D02*
X091377Y009087D01*
D12*
X009334Y006331D02*
X008389Y006331D01*
X005334Y006331D02*
X004389Y006331D01*
X004389Y018535D02*
X005334Y018535D01*
X008389Y018535D02*
X009334Y018535D01*
D13*
X009343Y016386D02*
X008743Y016386D01*
X008743Y015386D02*
X009343Y015386D01*
X013361Y015285D02*
X013361Y015885D01*
X015321Y015885D02*
X015321Y015285D01*
X017301Y015285D02*
X017301Y015885D01*
X019261Y015885D02*
X019261Y015285D01*
X022129Y015567D02*
X022729Y015567D01*
X022729Y017567D02*
X022129Y017567D01*
X009343Y014386D02*
X008743Y014386D01*
X002044Y010874D02*
X001444Y010874D01*
X001444Y009874D02*
X002044Y009874D01*
X002044Y008874D02*
X001444Y008874D01*
X013061Y009281D02*
X013661Y009281D01*
X018961Y009281D02*
X019561Y009281D01*
X022129Y005756D02*
X022729Y005756D01*
X022729Y003756D02*
X022129Y003756D01*
X019261Y003681D02*
X019261Y003081D01*
X017301Y003081D02*
X017301Y003681D01*
X015321Y003681D02*
X015321Y003081D01*
X013361Y003081D02*
X013361Y003681D01*
X009343Y003181D02*
X008743Y003181D01*
X008743Y004181D02*
X009343Y004181D01*
X009343Y002181D02*
X008743Y002181D01*
X053806Y009268D02*
X054406Y009268D01*
X054406Y010268D02*
X053806Y010268D01*
X053806Y011268D02*
X054406Y011268D01*
X074491Y010087D02*
X075091Y010087D01*
X075091Y008087D02*
X074491Y008087D01*
X074491Y004969D02*
X075091Y004969D01*
X075091Y002969D02*
X074491Y002969D01*
X074491Y014386D02*
X075091Y014386D01*
X075091Y016386D02*
X074491Y016386D01*
X074491Y020291D02*
X075091Y020291D01*
X075091Y022291D02*
X074491Y022291D01*
X055193Y021866D02*
X054593Y021866D01*
X054593Y022866D02*
X055193Y022866D01*
X055193Y023866D02*
X054593Y023866D01*
X019561Y021485D02*
X018961Y021485D01*
X013661Y021485D02*
X013061Y021485D01*
X002044Y021472D02*
X001444Y021472D01*
X001444Y022472D02*
X002044Y022472D01*
X002044Y023472D02*
X001444Y023472D01*
D14*
X004106Y022366D03*
X023004Y023366D03*
X025653Y022866D03*
X037677Y022472D03*
X068779Y018929D03*
X037283Y010268D03*
X025653Y010661D03*
X023004Y011161D03*
X025653Y014205D03*
X005968Y015780D03*
X004106Y009768D03*
X005968Y003575D03*
X025653Y002000D03*
X068779Y006724D03*
X092582Y003969D03*
X093582Y009087D03*
D15*
X092582Y009087D03*
X093582Y003969D03*
X067779Y006724D03*
X036283Y010268D03*
X026653Y010661D03*
X023004Y010161D03*
X026653Y014205D03*
X006968Y015780D03*
X004106Y010768D03*
X006968Y003575D03*
X026653Y002000D03*
X067779Y018929D03*
X036677Y022472D03*
X026653Y022866D03*
X023004Y022366D03*
X004106Y023366D03*
D16*
X043870Y017286D03*
X043870Y013586D03*
X043476Y005081D03*
X043476Y001381D03*
D17*
X045807Y008480D03*
X049807Y008480D03*
X049807Y010480D03*
X045807Y010480D03*
X045807Y020685D03*
X049807Y020685D03*
X049807Y022685D03*
X045807Y022685D03*
X099169Y018173D03*
X101169Y018173D03*
X101169Y014173D03*
X099169Y014173D03*
X098019Y008331D03*
X096019Y008331D03*
X096019Y004331D03*
X098019Y004331D03*
D18*
X058649Y011161D03*
X058649Y023366D03*
D19*
X057649Y023366D03*
X056649Y023366D03*
X056649Y022366D03*
X057649Y022366D03*
X058649Y022366D03*
X057649Y011161D03*
X056649Y011161D03*
X056649Y010161D03*
X057649Y010161D03*
X058649Y010161D03*
D20*
X051153Y014205D03*
X058279Y015189D03*
X061941Y014835D03*
X057019Y016646D03*
X056429Y017118D03*
X057767Y018496D03*
X065838Y016961D03*
X069500Y016961D03*
X071665Y016370D03*
X077964Y019323D03*
X086507Y017394D03*
X090878Y019323D03*
X077964Y021685D03*
X075011Y021685D03*
X074539Y021685D03*
X037137Y020583D03*
X031901Y014559D03*
X016429Y013417D03*
X035996Y007394D03*
X031862Y002315D03*
X016429Y001213D03*
X050720Y001961D03*
X056586Y002906D03*
X057492Y003299D03*
X057019Y004441D03*
X056429Y004913D03*
X057649Y005819D03*
M02*
