G75*
%MOIN*%
%OFA0B0*%
%FSLAX24Y24*%
%IPPOS*%
%LPD*%
%AMOC8*
5,1,8,0,0,1.08239X$1,22.5*
%
%ADD10C,0.0520*%
%ADD11C,0.0825*%
%ADD12C,0.0945*%
%ADD13C,0.0600*%
%ADD14C,0.0650*%
%ADD15R,0.0650X0.0650*%
%ADD16C,0.0750*%
%ADD17C,0.0515*%
%ADD18R,0.0600X0.0600*%
%ADD19OC8,0.0600*%
%ADD20C,0.0100*%
%ADD21C,0.0400*%
D10*
X001846Y001606D02*
X002366Y001606D01*
X001350Y002496D02*
X001350Y003016D01*
X005846Y001606D02*
X006366Y001606D01*
X001350Y006496D02*
X001350Y007016D01*
X005889Y010661D02*
X006409Y010661D01*
X008889Y010661D02*
X009409Y010661D01*
X006366Y013811D02*
X005846Y013811D01*
X002366Y013811D02*
X001846Y013811D01*
X001350Y015094D02*
X001350Y015614D01*
X001350Y019094D02*
X001350Y019614D01*
X005889Y023260D02*
X006409Y023260D01*
X008889Y023260D02*
X009409Y023260D01*
X028618Y023260D02*
X029138Y023260D01*
X032618Y023260D02*
X033138Y023260D01*
X033138Y022079D02*
X032618Y022079D01*
X029138Y022079D02*
X028618Y022079D01*
X028744Y011055D02*
X028224Y011055D01*
X028224Y009874D02*
X028744Y009874D01*
X032224Y009874D02*
X032744Y009874D01*
X032744Y011055D02*
X032224Y011055D01*
X095259Y002787D02*
X095779Y002787D01*
X098259Y002787D02*
X098779Y002787D01*
D11*
X100956Y002956D02*
X100956Y002131D01*
X091377Y003969D02*
X090552Y003969D01*
X085377Y003969D02*
X084552Y003969D01*
X100956Y008131D02*
X100956Y008956D01*
X101087Y011055D02*
X101912Y011055D01*
X107087Y011055D02*
X107912Y011055D01*
X096626Y013942D02*
X096626Y014767D01*
X103712Y015161D02*
X103712Y014336D01*
X093739Y018535D02*
X092914Y018535D01*
X096626Y019942D02*
X096626Y020767D01*
X103712Y021161D02*
X103712Y020336D01*
X101912Y023260D02*
X101087Y023260D01*
X107087Y023260D02*
X107912Y023260D01*
X087739Y018535D02*
X086914Y018535D01*
X085865Y018535D02*
X085040Y018535D01*
X079865Y018535D02*
X079040Y018535D01*
X077334Y017916D02*
X077334Y017091D01*
X077334Y023091D02*
X077334Y023916D01*
X041901Y023129D02*
X041901Y022304D01*
X041901Y017129D02*
X041901Y016304D01*
X041901Y010924D02*
X041901Y010099D01*
X041901Y004924D02*
X041901Y004099D01*
X011062Y008299D02*
X010237Y008299D01*
X005062Y008299D02*
X004237Y008299D01*
X004237Y020504D02*
X005062Y020504D01*
X010237Y020504D02*
X011062Y020504D01*
X084552Y009087D02*
X085377Y009087D01*
X090552Y009087D02*
X091377Y009087D01*
D12*
X009334Y006331D02*
X008389Y006331D01*
X005334Y006331D02*
X004389Y006331D01*
X004389Y018535D02*
X005334Y018535D01*
X008389Y018535D02*
X009334Y018535D01*
D13*
X009343Y016386D02*
X008743Y016386D01*
X008743Y015386D02*
X009343Y015386D01*
X013361Y015285D02*
X013361Y015885D01*
X015321Y015885D02*
X015321Y015285D01*
X017301Y015285D02*
X017301Y015885D01*
X019261Y015885D02*
X019261Y015285D01*
X022129Y015567D02*
X022729Y015567D01*
X022729Y017567D02*
X022129Y017567D01*
X009343Y014386D02*
X008743Y014386D01*
X002044Y010874D02*
X001444Y010874D01*
X001444Y009874D02*
X002044Y009874D01*
X002044Y008874D02*
X001444Y008874D01*
X013061Y009281D02*
X013661Y009281D01*
X018961Y009281D02*
X019561Y009281D01*
X022129Y005756D02*
X022729Y005756D01*
X022729Y003756D02*
X022129Y003756D01*
X019261Y003681D02*
X019261Y003081D01*
X017301Y003081D02*
X017301Y003681D01*
X015321Y003681D02*
X015321Y003081D01*
X013361Y003081D02*
X013361Y003681D01*
X009343Y003181D02*
X008743Y003181D01*
X008743Y004181D02*
X009343Y004181D01*
X009343Y002181D02*
X008743Y002181D01*
X053806Y009268D02*
X054406Y009268D01*
X054406Y010268D02*
X053806Y010268D01*
X053806Y011268D02*
X054406Y011268D01*
X074491Y010087D02*
X075091Y010087D01*
X075091Y008087D02*
X074491Y008087D01*
X074491Y004969D02*
X075091Y004969D01*
X075091Y002969D02*
X074491Y002969D01*
X074491Y014386D02*
X075091Y014386D01*
X075091Y016386D02*
X074491Y016386D01*
X074491Y020291D02*
X075091Y020291D01*
X075091Y022291D02*
X074491Y022291D01*
X055193Y021866D02*
X054593Y021866D01*
X054593Y022866D02*
X055193Y022866D01*
X055193Y023866D02*
X054593Y023866D01*
X019561Y021485D02*
X018961Y021485D01*
X013661Y021485D02*
X013061Y021485D01*
X002044Y021472D02*
X001444Y021472D01*
X001444Y022472D02*
X002044Y022472D01*
X002044Y023472D02*
X001444Y023472D01*
D14*
X004106Y022366D03*
X023004Y023366D03*
X025653Y022866D03*
X037677Y022472D03*
X068779Y018929D03*
X037283Y010268D03*
X025653Y010661D03*
X023004Y011161D03*
X025653Y014205D03*
X005968Y015780D03*
X004106Y009768D03*
X005968Y003575D03*
X025653Y002000D03*
X068779Y006724D03*
X092582Y003969D03*
X093582Y009087D03*
D15*
X092582Y009087D03*
X093582Y003969D03*
X067779Y006724D03*
X036283Y010268D03*
X026653Y010661D03*
X023004Y010161D03*
X026653Y014205D03*
X006968Y015780D03*
X004106Y010768D03*
X006968Y003575D03*
X026653Y002000D03*
X067779Y018929D03*
X036677Y022472D03*
X026653Y022866D03*
X023004Y022366D03*
X004106Y023366D03*
D16*
X043870Y017286D03*
X043870Y013586D03*
X043476Y005081D03*
X043476Y001381D03*
D17*
X045807Y008480D03*
X049807Y008480D03*
X049807Y010480D03*
X045807Y010480D03*
X045807Y020685D03*
X049807Y020685D03*
X049807Y022685D03*
X045807Y022685D03*
X099169Y018173D03*
X101169Y018173D03*
X101169Y014173D03*
X099169Y014173D03*
X098019Y008331D03*
X096019Y008331D03*
X096019Y004331D03*
X098019Y004331D03*
D18*
X058649Y011161D03*
X058649Y023366D03*
D19*
X057649Y023366D03*
X056649Y023366D03*
X056649Y022366D03*
X057649Y022366D03*
X058649Y022366D03*
X057649Y011161D03*
X056649Y011161D03*
X056649Y010161D03*
X057649Y010161D03*
X058649Y010161D03*
D20*
X058082Y010189D02*
X058082Y003890D01*
X057492Y003299D01*
X056586Y002906D02*
X056586Y004717D01*
X056429Y004874D01*
X056429Y004913D01*
X056429Y006016D01*
X053358Y009087D01*
X053358Y009520D01*
X046783Y009520D01*
X045838Y010465D01*
X045807Y010480D01*
X041901Y010504D02*
X041665Y010268D01*
X037283Y010268D01*
X036283Y010268D02*
X036271Y010268D01*
X035996Y009992D01*
X035996Y009480D01*
X030090Y009480D01*
X028515Y011055D01*
X028484Y011055D01*
X026468Y009874D02*
X025681Y010661D01*
X025653Y010661D01*
X026468Y009874D02*
X028484Y009874D01*
X035996Y009480D02*
X035996Y007394D01*
X036035Y007394D01*
X040878Y002551D01*
X057216Y002551D01*
X061389Y006724D01*
X067779Y006724D01*
X074791Y004969D02*
X074815Y004953D01*
X083948Y004953D01*
X084933Y003969D01*
X084964Y003969D01*
X072767Y010071D02*
X065011Y002315D01*
X031862Y002315D01*
X031704Y002000D02*
X031744Y001961D01*
X050720Y001961D01*
X057019Y004441D02*
X057019Y006331D01*
X054106Y009244D01*
X054106Y009268D01*
X053358Y009520D02*
X054106Y010268D01*
X054067Y010189D01*
X056626Y010189D01*
X056649Y010161D01*
X057649Y010161D02*
X057649Y005819D01*
X072767Y010071D02*
X074775Y010071D01*
X074791Y010087D01*
X074815Y010071D01*
X083948Y010071D01*
X084933Y009087D01*
X084964Y009087D01*
X077098Y013181D02*
X100720Y013181D01*
X107492Y019953D01*
X107492Y023260D01*
X107500Y023260D01*
X095366Y015307D02*
X090208Y020465D01*
X075759Y020465D01*
X074539Y021685D01*
X075011Y021685D02*
X077964Y021685D01*
X074791Y022291D02*
X074775Y022276D01*
X074657Y022276D01*
X074067Y021685D01*
X074067Y020110D01*
X074775Y019402D01*
X074775Y016409D01*
X074791Y016386D01*
X071665Y016370D02*
X063948Y016370D01*
X062059Y014480D01*
X051350Y014480D01*
X051271Y014559D01*
X031901Y014559D01*
X026653Y014205D02*
X051153Y014205D01*
X047059Y014835D02*
X038948Y022945D01*
X037452Y022945D01*
X036862Y022354D01*
X036677Y022472D01*
X036704Y022472D01*
X037137Y022039D01*
X037137Y020583D01*
X032885Y022079D02*
X032878Y022079D01*
X032885Y022079D02*
X032885Y023260D01*
X032878Y023260D01*
X028878Y023260D02*
X027059Y023260D01*
X026665Y022866D01*
X026653Y022866D01*
X026468Y022079D02*
X025681Y022866D01*
X025653Y022866D01*
X026468Y022079D02*
X028878Y022079D01*
X019261Y021485D02*
X019224Y021449D01*
X014224Y021449D01*
X013279Y020504D01*
X010649Y020504D01*
X005956Y015819D02*
X001744Y020031D01*
X001744Y021472D01*
X004106Y023366D02*
X004145Y023339D01*
X006035Y023339D01*
X006114Y023260D01*
X006149Y023260D01*
X006586Y023260D01*
X016429Y013417D01*
X018358Y015583D02*
X019736Y014205D01*
X025653Y014205D01*
X018358Y015583D02*
X017334Y015583D01*
X017301Y015585D01*
X009043Y015386D02*
X007413Y015386D01*
X007334Y015307D01*
X006468Y015307D01*
X005996Y015780D01*
X005968Y015780D01*
X005956Y015819D01*
X006035Y010740D02*
X004145Y010740D01*
X004106Y010768D01*
X004106Y010780D01*
X004027Y010858D01*
X001744Y010858D01*
X001744Y010874D01*
X006035Y010740D02*
X006114Y010661D01*
X006149Y010661D01*
X006980Y010661D01*
X016429Y001213D01*
X018358Y003378D02*
X019736Y002000D01*
X025653Y002000D01*
X026653Y002000D02*
X031704Y002000D01*
X018358Y003378D02*
X017334Y003378D01*
X017301Y003381D01*
X009043Y003181D02*
X007413Y003181D01*
X007334Y003102D01*
X006468Y003102D01*
X005996Y003575D01*
X005968Y003575D01*
X005956Y003614D01*
X001744Y007827D01*
X001744Y008874D01*
X010649Y008299D02*
X013279Y008299D01*
X014224Y009244D01*
X019224Y009244D01*
X019261Y009281D01*
X041901Y010504D02*
X041901Y010512D01*
X054106Y011268D02*
X054106Y011291D01*
X056153Y011291D01*
X056468Y011606D01*
X106941Y011606D01*
X107492Y011055D01*
X107500Y011055D01*
X099696Y014165D02*
X098909Y013378D01*
X090996Y013378D01*
X086389Y017984D01*
X080011Y017984D01*
X079460Y018535D01*
X079452Y018535D01*
X077964Y019323D02*
X090878Y019323D01*
X092413Y018535D02*
X087452Y023496D01*
X077334Y023496D01*
X077334Y023504D01*
X077098Y013181D02*
X066429Y023850D01*
X054893Y023850D01*
X054893Y023866D01*
X054893Y022866D02*
X054441Y022413D01*
X054460Y022394D01*
X056626Y022394D01*
X056649Y022366D01*
X057649Y022354D02*
X057649Y022366D01*
X057649Y022354D02*
X057767Y022236D01*
X057767Y018496D01*
X057767Y018457D01*
X058279Y017945D01*
X058279Y015189D01*
X061941Y014835D02*
X047059Y014835D01*
X056429Y017118D02*
X056429Y019402D01*
X054145Y021685D01*
X054145Y022118D01*
X046389Y022118D01*
X045838Y022669D01*
X045807Y022685D01*
X054145Y022118D02*
X054441Y022413D01*
X054893Y021866D02*
X054893Y021843D01*
X057019Y019717D01*
X057019Y016646D01*
X065838Y016961D02*
X069500Y016961D01*
X076547Y020268D02*
X079421Y017394D01*
X086507Y017394D01*
X092413Y018535D02*
X093326Y018535D01*
X095366Y015307D02*
X098043Y015307D01*
X099145Y014205D01*
X099169Y014173D01*
X099696Y014165D02*
X101153Y014165D01*
X101169Y014173D01*
X076547Y020268D02*
X074815Y020268D01*
X074791Y020291D01*
X058649Y011161D02*
X058633Y011134D01*
X058633Y010740D01*
X058082Y010189D01*
X004106Y023366D02*
X004106Y023378D01*
X004027Y023457D01*
X001744Y023457D01*
X001744Y023472D01*
D21*
X031901Y014559D03*
X016429Y013417D03*
X035996Y007394D03*
X031862Y002315D03*
X016429Y001213D03*
X050720Y001961D03*
X056586Y002906D03*
X057492Y003299D03*
X057019Y004441D03*
X056429Y004913D03*
X057649Y005819D03*
X051153Y014205D03*
X058279Y015189D03*
X061941Y014835D03*
X057019Y016646D03*
X056429Y017118D03*
X057767Y018496D03*
X065838Y016961D03*
X069500Y016961D03*
X071665Y016370D03*
X077964Y019323D03*
X086507Y017394D03*
X090878Y019323D03*
X077964Y021685D03*
X075011Y021685D03*
X074539Y021685D03*
X037137Y020583D03*
M02*
